<?xml version="1.0" encoding="utf-8"?>
<!-- Generator: Adobe Illustrator 23.0.1, SVG Export Plug-In . SVG Version: 6.00 Build 0)  -->
<svg version="1.1" id="Calque_1" xmlns="http://www.w3.org/2000/svg" xmlns:xlink="http://www.w3.org/1999/xlink" x="0px" y="0px"
	 viewBox="0 0 360.53 433.51" style="enable-background:new 0 0 360.53 433.51;" xml:space="preserve">
<style type="text/css">
	.st0{clip-path:url(#SVGID_2_);fill:#FFFFFF;}
</style>
<g>
	<defs>
		<rect id="SVGID_1_" width="360.53" height="433.51"/>
	</defs>
	<clipPath id="SVGID_2_">
		<use xlink:href="#SVGID_1_"  style="overflow:visible;"/>
	</clipPath>
	<path class="st0" d="M359.95,325.81c-1.46,1.69-4.14,1.57-5.95,0.27c-22.68-16.24-45.2-32.07-67.89-48.31
		c-0.77-0.55-1.58-1.07-2.5-1.64c-1.19-0.74-2.76-0.36-3.47,0.85c-4.09,6.9-8.19,13.3-11.51,20.09c-2.73,5.59-6.17,7.08-12.42,7.04
		c-2.56-0.01-5.97-0.28-8.19-0.43c0.45,0.77,2.62,1.62,2.86,1.7c10.8,3.78,10.78,3.81,5,13.69c-6.46,11.03-12.99,22.02-19.23,33.17
		c-10.52,18.82-26.17,30.02-47.67,32.82c-0.37,0.05-0.73,0.13-1.12,0.23c-1.09,0.29-1.85,1.28-1.85,2.41
		c0,9.04-0.01,18.05,0.01,27.07c0.01,5.07,0.06,10.14,0.1,15.21c0.02,1.94-1.56,3.53-3.5,3.53c-2.05,0-3.77-1.67-3.82-3.72
		c-0.3-12.61-0.28-25.24-0.38-37.86c-0.01-1.33-0.01-2.66,0-4.05c0-1.18-0.83-2.21-1.98-2.45c-1.01-0.22-1.88-0.4-2.77-0.53
		c-19.94-2.83-35-13.01-45.23-30.26c-7.45-12.56-14.65-25.27-21.95-37.93c-4.1-7.11-3.77-7.92,4.19-10.66
		c0.67-0.23,3.19-0.86,4.13-2.19c-2.19,0-4.19,0.39-8.63,0.33c-4.95-0.07-8.06-1.23-10.42-5.84c-3.67-7.15-7.91-14-12.22-21.33
		c-0.75-1.27-2.43-1.63-3.63-0.77c-9.36,6.69-18.41,13.14-27.42,19.63c-15.61,11.24-31.19,22.51-46.8,33.75
		c-1.62,1.17-3.89,0.76-5.01-0.9c-1.17-1.74-0.75-4.1,0.95-5.32c34.42-24.74,68.82-49.51,103.32-74.13
		c4.13-2.95,5.89-6.08,6.66-11.38c1.15-7.95,4.25-15.71,7.28-23.24c1.22-3.04,1.6-5.07-0.13-7.92
		c-5.34-8.84-10.24-17.95-15.66-26.74c-1.85-2.99-4.57-5.34-7.79-6.76c-12.38-5.46-24.22-11.68-33.72-21.59
		c-16.87-17.58-16.59-38.59,0.75-55.76c12.25-12.12,27.39-19.29,43.49-24.53c4.27-1.39,5.58-3.29,5.41-7.71
		c-0.41-10.76,0.21-21.57-0.39-32.32c-0.53-9.33,3.64-15.26,11.32-19.48c10.92-6,22.86-8.6,35.04-10.13
		c22.86-2.88,45.63-2.45,67.92,3.83c6.76,1.9,13.25,5.12,19.46,8.47c5.91,3.19,8.36,8.72,8.23,15.59
		c-0.22,11.68,0.11,23.38-0.17,35.06c-0.09,3.85,1.26,5.37,4.79,6.51c14.88,4.8,28.85,11.43,40.82,21.75
		c21.26,18.33,21.67,42.58,0.95,61.48c-3.09,2.82-6.37,5.57-9.96,7.66c-4.23,2.47-6.3,5.41-7.11,10.51
		c-2.53,15.86-15.15,27.59-31.31,30.21c-5.89,0.96-8.7,6.09-6.24,11.14c4.17,8.57,7.07,17.66,7.93,27.15
		c0.27,2.93,1.57,4.78,4.1,6.58c34.32,24.45,68.01,48.75,102.26,73.29C360.35,322.03,361.15,324.41,359.95,325.81 M236.96,204.17
		c0.87-0.62,1.27-0.77,1.43-1.05c10.26-17.69,20.57-35.34,30.6-53.15c0.78-1.38,0.38-4.57-0.73-5.67
		c-5.9-5.89-11.46-12.65-18.5-16.79c-35.56-20.91-73.4-22.3-112.1-10.64c-16.15,4.87-30.47,13.11-40.98,26.96
		c-2.43,3.2-2.79,5.77-0.57,9.28c4.29,6.79,8.12,13.86,12.14,20.82c5.82,10.07,11.65,20.14,17.76,30.71
		c12.27-11.67,26.32-17.29,43.15-16.11c7.02,0.49,14.06,0.3,21.08-0.14C208.05,187.29,223.95,191.28,236.96,204.17 M93.46,163.08
		c-1.49-2.6-2.68-5.46-4.54-7.76c-3.98-4.89-2.81-9.07,0.44-13.82c9.35-13.65,22.44-22.33,37.35-28.48
		c25.83-10.67,52.83-13.24,80.13-8.52c33.1,5.72,62.89,17.23,76.33,53.39c4.52-3.73,9.12-6.96,13.06-10.86
		c14.48-14.32,14.6-30.67,0.45-45.36c-8.78-9.12-19.69-15.02-31.26-19.75c-23.28-9.51-47.69-13.66-72.67-14.55
		c-34.5-1.23-68.23,2.65-100.08,17.02c-10.89,4.91-21,11.11-28.63,20.62c-7.89,9.84-10.31,20.61-4.1,32.08
		C67.13,150.38,79.53,157.55,93.46,163.08 M124.11,65.98c38.47-8.21,76.39-8.24,114.66-0.17c3.4,0.72,6.59-1.89,6.54-5.37
		c-0.13-9.23-0.4-18.03,0.25-26.77c0.68-9.11-3.4-14.02-11.08-17.16c-2.19-0.9-4.37-1.85-6.63-2.57
		c-20.34-6.51-41.23-7.43-62.31-5.73c-12.78,1.03-25.33,3.23-37.14,8.63c-6.91,3.16-11.06,7.46-10.32,16
		c0.81,9.43,0.26,18.97,0.3,28.47c0,0.02,0,0.04,0,0.05C118.4,64.37,121.17,66.61,124.11,65.98 M125.14,217.99
		c-8.97,16.96-8.95,32.55-0.1,48.03c9.32,16.31,18.7,32.6,28.23,48.79c13.34,22.66,43.63,22.74,57.01,0.16
		c7.16-12.08,14.07-24.32,21.06-36.5c3.27-5.7,6.87-11.24,9.59-17.2c6.57-14.36,5.71-28.47-2.53-43.11
		c-7.21,12.5-13.62,24.35-20.8,35.71c-3.44,5.44-7.6,10.98-12.72,14.72c-19.47,14.19-45.59,8.11-58.07-13.02
		C139.67,243.51,132.8,231.29,125.14,217.99 M185.21,378.06c18.25-1.94,31.9-9.28,41.13-23.42c7.17-10.98,13.35-22.6,19.96-33.95
		c1.34-2.3,2.64-4.63,4.47-7.85c-7.73-1.74-14.64-3.12-21.45-4.88c-4.39-1.13-6.99-0.02-9.01,4.23
		c-6.6,13.89-16.5,23.94-32.47,26.55c-0.99,0.16-2.5,1.74-2.51,2.68C185.15,353.41,185.21,365.4,185.21,378.06 M177.89,377.94
		c0-12.64,0.09-24.62-0.16-36.59c-0.02-1.01-2.15-2.56-3.53-2.87c-9.2-2.09-17.2-6.22-22.94-13.79c-3.4-4.47-6-9.54-9.13-14.23
		c-0.82-1.23-2.41-3.09-3.35-2.93c-8.48,1.45-16.9,3.29-26.38,5.23c9.39,15.71,17.86,30.14,26.64,44.37
		c1.87,3.04,4.65,5.64,7.39,7.99C155.37,372.78,165.72,377.07,177.89,377.94 M141.74,232.21c4.84,8.16,8.96,16.35,14.24,23.72
		c11.5,16.07,36.58,17.61,49.32,2.59c6.62-7.81,11.24-17.32,16.79-26.11c-6.17-4.91-11.59-6.89-19.21-4.94
		c-13.43,3.43-27.51,3.87-40.84,0.07C153.84,225.21,148.16,227.24,141.74,232.21 M225.68,225.15c1.93-3.25,3.44-6.37,5.49-9.08
		c3.39-4.47,1-7.04-3.94-10.59c-8.3-5.97-18.24-9.25-28.46-9.51c-13.01-0.33-26.05-0.31-39.04,0.2
		c-10.58,0.41-19.69,5.18-27.14,12.74c-1.01,1.03-1.9,3.4-1.4,4.48c1.89,4.06,4.37,7.85,6.68,11.81
		C167.32,208.47,196.14,208.4,225.68,225.15 M229.81,296.73c10,0,19.23,0.06,28.46-0.08c1.01-0.02,2.4-0.98,2.94-1.9
		c4.74-7.96,9.32-16.01,14.23-24.52c-7.92-5.69-15.52-11.14-22.54-16.19C245.21,268.27,237.8,281.97,229.81,296.73 M88.19,270.21
		c4.85,8.43,9.32,16.35,13.98,24.16c0.64,1.07,2.17,2.27,3.31,2.29c9.21,0.18,18.42,0.1,28.27,0.1
		c-7.88-14.64-15.31-28.46-22.98-42.72C103.74,259.06,96.24,264.43,88.19,270.21 M273.88,156.58
		c-7.55,13.09-14.54,25.23-21.87,37.95C268.78,191.62,279.03,173.93,273.88,156.58"/>
</g>
</svg>
